<svg width="1600" height="900" viewBox="0 0 1600 900" fill="none" xmlns="http://www.w3.org/2000/svg">
  <rect width="1600" height="900" fill="#080707"/>
  <defs>
    <radialGradient id="glow" cx="0" cy="0" r="1" gradientUnits="userSpaceOnUse" gradientTransform="translate(930 442) rotate(151) scale(765 497)">
      <stop stop-color="#ff1749"/>
      <stop offset=".45" stop-color="#7d001c"/>
      <stop offset="1" stop-color="#090707"/>
    </radialGradient>
    <linearGradient id="ribbonA" x1="208" y1="756" x2="1341" y2="99" gradientUnits="userSpaceOnUse">
      <stop stop-color="#4b000f"/>
      <stop offset=".35" stop-color="#c9002b"/>
      <stop offset="1" stop-color="#250006"/>
    </linearGradient>
    <linearGradient id="ribbonB" x1="52" y1="262" x2="1605" y2="788" gradientUnits="userSpaceOnUse">
      <stop stop-color="#120003"/>
      <stop offset=".5" stop-color="#e00031"/>
      <stop offset="1" stop-color="#3a000b"/>
    </linearGradient>
  </defs>
  <rect width="1600" height="900" fill="url(#glow)" opacity=".78"/>
  <path d="M-47 706C171 467 335 348 445 348c147 0 185 166 354 166 203 0 293-239 519-311 103-33 222-37 359-13v176c-145-21-260-6-344 45-155 94-220 261-441 281-191 18-290-105-430-103-98 1-226 71-383 211L-47 706Z" fill="url(#ribbonA)" opacity=".82"/>
  <path d="M-64 316c192-94 359-126 501-96 191 41 263 184 447 206 203 25 303-104 480-102 105 1 216 51 333 151v187c-129-128-240-193-333-195-168-4-276 154-493 129-199-23-285-191-480-218-119-17-271 22-455 118V316Z" fill="url(#ribbonB)" opacity=".78"/>
  <path d="M132 148h1336v604H132V148Z" fill="#0d0d0c" opacity=".42"/>
  <path d="M132 148h1336v604H132V148Z" stroke="white" stroke-opacity=".09" stroke-width="2"/>
  <g opacity=".34">
    <path d="M278 205h1044" stroke="white" stroke-opacity=".18"/>
    <path d="M278 695h1044" stroke="white" stroke-opacity=".18"/>
    <path d="M278 205v490" stroke="white" stroke-opacity=".18"/>
    <path d="M1322 205v490" stroke="white" stroke-opacity=".18"/>
  </g>
  <g transform="translate(724 354)">
    <circle cx="76" cy="76" r="75" fill="white"/>
    <path d="M63 45l54 31-54 31V45Z" fill="#c9002b"/>
  </g>
  <text x="140" y="784" fill="white" fill-opacity=".78" font-family="Manrope, Arial, sans-serif" font-size="26" font-weight="800" letter-spacing="5">SHOWREEL PENSE ASSIM</text>
  <text x="140" y="823" fill="white" fill-opacity=".48" font-family="Manrope, Arial, sans-serif" font-size="18" letter-spacing="2">IDEIAS PRECISAM SER SENTIDAS</text>
</svg>
